<svg viewBox="0 0 420 72" fill="none" xmlns="http://www.w3.org/2000/svg" width="420" height="72" style="font-family: serif;">
  <!-- Shield -->
  <path d="M28 3L5 12V28C5 40.5 15 50.5 28 54C41 50.5 51 40.5 51 28V12L28 3Z" fill="#1B2A4A"/>
  <path d="M28 7L9 15V28C9 38.8 17.5 47.5 28 50.5C38.5 47.5 47 38.8 47 28V15L28 7Z" fill="#243560"/>
  <rect x="18" y="20" width="20" height="18" rx="2" fill="none" stroke="#F0E8D8" stroke-width="1.5"/>
  <line x1="18" y1="25" x2="38" y2="25" stroke="#C49A3C" stroke-width="1.5"/>
  <line x1="23" y1="19" x2="23" y2="23" stroke="#F0E8D8" stroke-width="1.5" stroke-linecap="round"/>
  <line x1="33" y1="19" x2="33" y2="23" stroke="#F0E8D8" stroke-width="1.5" stroke-linecap="round"/>
  <path d="M22 31 Q24 28 28 28 Q32 28 34 31" stroke="#C49A3C" stroke-width="1.5" fill="none" stroke-linecap="round"/>
  <polyline points="34,29 34,31 32,31" stroke="#C49A3C" stroke-width="1.5" stroke-linecap="round" stroke-linejoin="round"/>
  <circle cx="24" cy="13" r="1" fill="#C49A3C" opacity="0.6"/>
  <circle cx="28" cy="11" r="1.2" fill="#C49A3C"/>
  <circle cx="32" cy="13" r="1" fill="#C49A3C" opacity="0.6"/>
  <!-- Wordmark text via foreignObject for font rendering -->
  <text x="74" y="18" font-family="Georgia, serif" font-size="10" fill="#C49A3C" letter-spacing="3" text-anchor="start" font-weight="400">WAKE COUNTY, NC</text>
  <text x="72" y="46" font-family="Georgia, serif" font-size="28" fill="#0F1C33" letter-spacing="-0.5" text-anchor="start" font-weight="900">Reset My <tspan fill="#C49A3C">Courtdate</tspan></text>
  <text x="74" y="60" font-family="monospace" font-size="9" fill="#4A5568" letter-spacing="2.5" text-anchor="start">MISSED COURT DATE RESOLUTION SERVICE</text>
</svg>
